<?xml version="1.0" encoding="utf-8"?>
<!-- Generator: Adobe Illustrator 24.0.3, SVG Export Plug-In . SVG Version: 6.00 Build 0)  -->
<svg version="1.1" id="Fundraising" xmlns="http://www.w3.org/2000/svg" xmlns:xlink="http://www.w3.org/1999/xlink" x="0px"
	 y="0px" viewBox="0 0 476.33 563.95" style="enable-background:new 0 0 476.33 563.95;" xml:space="preserve">
<style type="text/css">
	.st0{fill:none;stroke:#D3D3D3;stroke-miterlimit:10;}
	.st1{fill:none;stroke:#D3D3D3;stroke-width:0.25;stroke-miterlimit:10;}
	.st2{fill:none;stroke:#1B1726;stroke-width:0.5071;stroke-linecap:round;stroke-miterlimit:10;}
	.st3{fill:#E6E7E8;stroke:#D3D3D3;stroke-width:0.25;stroke-miterlimit:10;}
	.st4{fill:#E6E7E8;stroke:#D3D3D3;stroke-miterlimit:10;}
	.st5{fill:#F58020;stroke:#E77246;stroke-width:0.5;stroke-miterlimit:10;}
	.st6{fill:#FFFFFF;}
	.st7{fill:none;stroke:#D7D8D9;stroke-width:0.286;stroke-miterlimit:10;}
	.st8{fill:none;stroke:#1B1726;stroke-width:0.581;stroke-linecap:round;stroke-miterlimit:10;}
	.st9{fill:#1B1726;}
	.st10{font-family:'NunitoSans-ExtraBold';}
	.st11{font-size:10.4518px;}
	.st12{fill:#818285;}
	.st13{font-family:'NunitoSans-Light';}
	.st14{fill:#E6E7E8;}
	.st15{fill:none;stroke:#F58020;stroke-width:2.29;stroke-miterlimit:10;}
	.st16{clip-path:url(#SVGID_2_);fill:#F58020;}
	.st17{clip-path:url(#SVGID_2_);fill:none;stroke:#E77246;stroke-width:0.573;stroke-miterlimit:10;}
	.st18{clip-path:url(#SVGID_2_);}
	.st19{font-size:11.6132px;}
	.st20{font-size:10.3059px;}
	.st21{fill:#6D6E71;}
	.st22{font-family:'NunitoSans-Regular';}
	.st23{font-size:9px;}
	.st24{fill:none;stroke:#ECEDED;stroke-width:1.539;stroke-dasharray:1.974,1.974;}
	.st25{fill:#2D284D;}
	.st26{clip-path:url(#SVGID_4_);fill:none;stroke:#FFFFFF;stroke-width:1.459;stroke-miterlimit:10;}
	.st27{fill:#7E3353;}
	.st28{fill:none;stroke:#FFFFFF;stroke-width:1.492;stroke-miterlimit:10;}
	.st29{fill:#BD4852;}
	.st30{fill:none;stroke:#FFFFFF;stroke-width:1.459;stroke-miterlimit:10;}
	.st31{fill:#F58120;}
	.st32{font-size:11.9129px;}
</style>
<rect x="1.17" y="0" class="st6" width="468.41" height="461.74"/>
<path class="st7" d="M447.06,420.99V5.1 M464.53,22.68H48.74"/>
<path class="st8" d="M72.11,406.65l10.05-1.62 M67.58,408.92l14.26,6.05"/>
<text transform="matrix(1 0 0 1 401.2529 35.3734)" class="st9 st10 st11">EverT</text>
<text transform="matrix(1 0 0 1 428.3545 35.3734)" class="st9 st10 st11">rue</text>
<text transform="matrix(1 0 0 1 41.1152 437.8929)" class="st12 st13 st11">3.0</text>
<text transform="matrix(1 0 0 1 120.8203 437.8929)" class="st12 st13 st11">3.4</text>
<text transform="matrix(1 0 0 1 200.5264 437.8929)" class="st12 st13 st11">3.8</text>
<text transform="matrix(1 0 0 1 280.2207 437.8929)" class="st12 st13 st11">4.2</text>
<text transform="matrix(1 0 0 1 359.9268 437.8929)" class="st12 st13 st11">4.6</text>
<text transform="matrix(1 0 0 1 439.6211 437.8929)" class="st12 st13 st11">5.0</text>
<line class="st7" x1="128.24" y1="421.64" x2="128.24" y2="6.24"/>
<line class="st7" x1="88.61" y1="421.64" x2="88.61" y2="6.24"/>
<line class="st7" x1="207.49" y1="421.37" x2="207.49" y2="5.76"/>
<line class="st7" x1="167.86" y1="421.37" x2="167.86" y2="5.76"/>
<line class="st7" x1="367.91" y1="421.03" x2="367.91" y2="6.24"/>
<line class="st7" x1="328.28" y1="421.03" x2="328.28" y2="6.24"/>
<line class="st7" x1="407.54" y1="421.03" x2="407.54" y2="5.1"/>
<line class="st7" x1="287.64" y1="420.7" x2="287.64" y2="6.24"/>
<line class="st7" x1="247.38" y1="420.5" x2="247.38" y2="5.1"/>
<polygon class="st15" points="464.63,414.84 464.63,11.07 464.63,5.31 54.71,5.31 48.74,5.31 48.74,420.99 464.63,420.99 "/>
<path class="st7" d="M49.06,381.21h415.46 M49.06,341.43h415.46 M49.06,301.66h415.46 M49.06,261.88h415.46 M49.06,222.1h415.46
	 M49.06,182.32h415.46 M49.06,142.54h415.46 M49.06,102.76h415.46 M49.06,62.98h415.46"/>
<text transform="matrix(1 0 0 1 24.4365 425.8094)" class="st12 st13 st11">3.0</text>
<text transform="matrix(1 0 0 1 24.4365 346.1043)" class="st12 st13 st11">3.4</text>
<text transform="matrix(1 0 0 1 24.4365 267.5692)" class="st12 st13 st11">3.8</text>
<text transform="matrix(1 0 0 1 24.4365 187.8743)" class="st12 st13 st11">4.2</text>
<text transform="matrix(1 0 0 1 24.4473 108.1688)" class="st12 st13 st11">4.6</text>
<text transform="matrix(1 0 0 1 24.4365 28.4632)" class="st12 st13 st11">5.0</text>
<g>
	<defs>
		<rect id="SVGID_1_" x="1.17" y="0" width="468.41" height="461.74"/>
	</defs>
	<clipPath id="SVGID_2_">
		<use xlink:href="#SVGID_1_"  style="overflow:visible;"/>
	</clipPath>
	<path class="st16" d="M114.29,327.63L114.29,327.63c1.66,0,3,1.34,3,3c0,1.66-1.34,3-3,3c-1.66,0-3-1.34-3-3
		C111.29,328.97,112.63,327.63,114.29,327.63"/>
	<path class="st17" d="M114.29,327.63L114.29,327.63c1.66,0,3,1.34,3,3c0,1.66-1.34,3-3,3c-1.66,0-3-1.34-3-3
		C111.29,328.97,112.63,327.63,114.29,327.63z"/>
	<path class="st16" d="M170.08,281.8L170.08,281.8c1.66,0,3,1.34,3,3c0,1.66-1.34,3-3,3c-1.66,0-3-1.34-3-3
		C167.08,283.14,168.42,281.8,170.08,281.8"/>
	<path class="st17" d="M170.08,281.8L170.08,281.8c1.66,0,3,1.34,3,3c0,1.66-1.34,3-3,3c-1.66,0-3-1.34-3-3
		C167.08,283.14,168.42,281.8,170.08,281.8z"/>
	<path class="st16" d="M64.48,391.39L64.48,391.39c1.66,0,3,1.34,3,3c0,1.66-1.35,3-3,3c-1.66,0-3-1.35-3-3
		C61.47,392.73,62.82,391.39,64.48,391.39"/>
	<path class="st17" d="M64.48,391.39L64.48,391.39c1.66,0,3,1.34,3,3c0,1.66-1.35,3-3,3c-1.66,0-3-1.35-3-3
		C61.47,392.73,62.82,391.39,64.48,391.39z"/>
	<path class="st16" d="M72.45,403.34L72.45,403.34c1.66,0,3,1.34,3,3c0,1.66-1.35,3-3,3c-1.66,0-3-1.34-3-3
		C69.44,404.69,70.79,403.34,72.45,403.34"/>
	<path class="st17" d="M72.45,403.34L72.45,403.34c1.66,0,3,1.34,3,3c0,1.66-1.35,3-3,3c-1.66,0-3-1.34-3-3
		C69.44,404.69,70.79,403.34,72.45,403.34z"/>
	<path class="st16" d="M249.78,180.18L249.78,180.18c1.66,0,3,1.34,3,3c0,1.66-1.34,3-3,3c-1.66,0-3-1.35-3-3
		C246.78,181.52,248.12,180.18,249.78,180.18"/>
	<path class="st17" d="M249.78,180.18L249.78,180.18c1.66,0,3,1.34,3,3c0,1.66-1.34,3-3,3c-1.66,0-3-1.35-3-3
		C246.78,181.52,248.12,180.18,249.78,180.18z"/>
	<path class="st16" d="M90.38,367.48L90.38,367.48c1.66,0,3,1.34,3,3c0,1.66-1.35,3-3,3c-1.66,0-3-1.34-3-3
		C87.38,368.82,88.72,367.48,90.38,367.48"/>
	<path class="st17" d="M90.38,367.48L90.38,367.48c1.66,0,3,1.34,3,3c0,1.66-1.35,3-3,3c-1.66,0-3-1.34-3-3
		C87.38,368.82,88.72,367.48,90.38,367.48z"/>
	<path class="st16" d="M82.41,369.47L82.41,369.47c1.66,0,3,1.34,3,3c0,1.66-1.34,3-3,3c-1.66,0-3-1.34-3-3
		C79.41,370.82,80.75,369.47,82.41,369.47"/>
	<path class="st17" d="M82.41,369.47L82.41,369.47c1.66,0,3,1.34,3,3c0,1.66-1.34,3-3,3c-1.66,0-3-1.34-3-3
		C79.41,370.82,80.75,369.47,82.41,369.47z"/>
	<path class="st16" d="M447.04,20.78L447.04,20.78c1.66,0,3,1.34,3,3c0,1.66-1.34,3-3,3c-1.66,0-3-1.34-3-3
		C444.04,22.12,445.38,20.78,447.04,20.78"/>
	<path class="st17" d="M447.04,20.78L447.04,20.78c1.66,0,3,1.34,3,3c0,1.66-1.34,3-3,3c-1.66,0-3-1.34-3-3
		C444.04,22.12,445.38,20.78,447.04,20.78z"/>
	<path class="st16" d="M293.62,168.23L293.62,168.23c1.66,0,3,1.34,3,3c0,1.66-1.34,3-3,3c-1.66,0-3-1.34-3-3
		C290.62,169.57,291.96,168.23,293.62,168.23"/>
	<path class="st17" d="M293.62,168.23L293.62,168.23c1.66,0,3,1.34,3,3c0,1.66-1.34,3-3,3c-1.66,0-3-1.34-3-3
		C290.62,169.57,291.96,168.23,293.62,168.23z"/>
	<path class="st16" d="M74.44,357.52L74.44,357.52c1.66,0,3,1.34,3,3c0,1.66-1.35,3-3,3c-1.66,0-3-1.35-3-3
		C71.44,358.86,72.78,357.52,74.44,357.52"/>
	<path class="st17" d="M74.44,357.52L74.44,357.52c1.66,0,3,1.34,3,3c0,1.66-1.35,3-3,3c-1.66,0-3-1.35-3-3
		C71.44,358.86,72.78,357.52,74.44,357.52z"/>
	<path class="st16" d="M190.01,247.93L190.01,247.93c1.66,0,3,1.34,3,3c0,1.66-1.34,3-3,3c-1.66,0-3-1.34-3-3
		C187,249.27,188.35,247.93,190.01,247.93"/>
	<path class="st17" d="M190.01,247.93L190.01,247.93c1.66,0,3,1.34,3,3c0,1.66-1.34,3-3,3c-1.66,0-3-1.34-3-3
		C187,249.27,188.35,247.93,190.01,247.93z"/>
	<path class="st16" d="M68.46,405.34L68.46,405.34c1.66,0,3,1.34,3,3c0,1.66-1.35,3-3,3c-1.66,0-3-1.34-3-3
		C65.46,406.68,66.8,405.34,68.46,405.34"/>
	<path class="st17" d="M68.46,405.34L68.46,405.34c1.66,0,3,1.34,3,3c0,1.66-1.35,3-3,3c-1.66,0-3-1.34-3-3
		C65.46,406.68,66.8,405.34,68.46,405.34z"/>
	<g class="st18">
		<text transform="matrix(1 0 0 1 216.1162 458.8275)"><tspan x="0" y="0" class="st12 st10 st19">U</tspan><tspan x="9.15" y="0" class="st12 st10 st19">SABILI</tspan><tspan x="50.33" y="0" class="st12 st10 st19">T</tspan></text>
	</g>
	<g class="st18">
		<text transform="matrix(1 0 0 1 274.3682 458.8275)" class="st12 st10 st19">Y</text>
	</g>
	<g class="st18">
		<text transform="matrix(-6.123234e-17 -1 1 -6.123234e-17 9.5659 296.4449)"><tspan x="0" y="0" class="st12 st10 st19">C</tspan><tspan x="8.45" y="0" class="st12 st10 st19">U</tspan><tspan x="17.61" y="0" class="st12 st10 st19">S</tspan></text>
	</g>
	<g class="st18">
		<text transform="matrix(-6.123234e-17 -1 1 -6.123234e-17 9.5658 270.8609)"><tspan x="0" y="0" class="st12 st10 st19">T</tspan><tspan x="7.34" y="0" class="st12 st10 st19">O</tspan></text>
	</g>
	<g class="st18">
		<text transform="matrix(-6.123234e-17 -1 1 -6.123234e-17 9.566 253.8004)"><tspan x="0" y="0" class="st12 st10 st19">M</tspan><tspan x="10.31" y="0" class="st12 st10 st19">ER S</tspan><tspan x="38.32" y="0" class="st12 st10 st19">A</tspan></text>
	</g>
	<g class="st18">
		<text transform="matrix(-6.123234e-17 -1 1 -6.123234e-17 9.5658 207.15)"><tspan x="0" y="0" class="st12 st10 st19">TIS</tspan><tspan x="19.96" y="0" class="st12 st10 st19">F</tspan></text>
	</g>
	<g class="st18">
		<text transform="matrix(-6.123234e-17 -1 1 -6.123234e-17 9.5658 180.6021)"><tspan x="0" y="0" class="st12 st10 st19">A</tspan><tspan x="9.07" y="0" class="st12 st10 st19">C</tspan></text>
	</g>
	<g class="st18">
		<text transform="matrix(-6.123234e-17 -1 1 -6.123234e-17 9.5657 163.1939)"><tspan x="0" y="0" class="st12 st10 st19">TIO</tspan><tspan x="21.54" y="0" class="st12 st10 st19">N</tspan></text>
	</g>
</g>
<text transform="matrix(1 0 0 1 302.457 175.3338)" class="st9 st10 st20">Givebut</text>
<text transform="matrix(1 0 0 1 339.9395 175.3338)" class="st9 st10 st20">ter</text>
<text transform="matrix(1 0 0 1 258.3818 187.0013)" class="st9 st10 st11">Donarius</text>
<text transform="matrix(1 0 0 1 198.4824 253.7674)" class="st9 st10 st11">MobileCause</text>
<text transform="matrix(1 0 0 1 177.6104 288.1224)" class="st9 st10 st11">BiddingOwl</text>
<text transform="matrix(1 0 0 1 120.3555 333.7132)" class="st9 st10 st11">Auctria</text>
<text transform="matrix(1 0 0 1 58.3447 354.8885)" class="st9 st10 st11">Kindful</text>
<text transform="matrix(1 0 0 1 95.9404 373.681)" class="st9 st10 st11">Donately</text>
<text transform="matrix(1 0 0 1 71.3057 385.345)" class="st9 st10 st11">Eleo</text>
<text transform="matrix(1 0 0 1 83.6172 417.9022)"><tspan x="0" y="0" class="st9 st10 st11">N</tspan><tspan x="7.86" y="0" class="st9 st10 st11">e</tspan><tspan x="13.44" y="0" class="st9 st10 st11">t</tspan><tspan x="17.49" y="0" class="st9 st10 st11">w</tspan><tspan x="26.52" y="0" class="st9 st10 st11">o</tspan><tspan x="32.66" y="0" class="st9 st10 st11">rk f</tspan><tspan x="49.57" y="0" class="st9 st10 st11">o</tspan><tspan x="55.72" y="0" class="st9 st10 st11">r G</tspan><tspan x="70.57" y="0" class="st9 st10 st11">ood</tspan></text>
<text transform="matrix(1 0 0 1 83.293 408.3494)" class="st9 st10 st11">Continue to Giv</text>
<text transform="matrix(1 0 0 1 159.4248 408.3494)" class="st9 st10 st11">e</text>
<text transform="matrix(1 0 0 1 69.6855 397.5526)" class="st9 st10 st11">Bloomerang</text>
<text transform="matrix(1.0082 0 0 1 308.4561 496.6937)"><tspan x="0" y="0" class="st21 st22 st23">“Usabili</tspan><tspan x="30.66" y="0" class="st21 st22 st23">t</tspan><tspan x="33.77" y="0" class="st21 st22 st23">y</tspan><tspan x="38.42" y="0" class="st21 st22 st23">” includes user </tspan><tspan x="99.18" y="0" class="st21 st22 st23">r</tspan><tspan x="102.33" y="0" class="st21 st22 st23">atings </tspan><tspan x="129.27" y="0" class="st21 st22 st23">f</tspan><tspan x="132.18" y="0" class="st21 st22 st23">or </tspan></text>
<text transform="matrix(1.0082 0 0 1 308.4561 507.6917)"><tspan x="0" y="0" class="st21 st22 st23">F</tspan><tspan x="4.93" y="0" class="st21 st22 st23">un</tspan><tspan x="15.09" y="0" class="st21 st22 st23">c</tspan><tspan x="19.41" y="0" class="st21 st22 st23">tionali</tspan><tspan x="43.61" y="0" class="st21 st22 st23">t</tspan><tspan x="46.73" y="0" class="st21 st22 st23">y and Ease </tspan><tspan x="92.51" y="0" class="st21 st22 st23">o</tspan><tspan x="97.5" y="0" class="st21 st22 st23">f Use.</tspan></text>
<text transform="matrix(1.0082 0 0 1 308.4561 527.6175)"><tspan x="0" y="0" class="st21 st22 st23">“</tspan><tspan x="3.5" y="0" class="st21 st22 st23">C</tspan><tspan x="9.51" y="0" class="st21 st22 st23">u</tspan><tspan x="14.56" y="0" class="st21 st22 st23">s</tspan><tspan x="18.85" y="0" class="st21 st22 st23">tomer Satis</tspan><tspan x="64.6" y="0" class="st21 st22 st23">f</tspan><tspan x="67.52" y="0" class="st21 st22 st23">a</tspan><tspan x="72.29" y="0" class="st21 st22 st23">c</tspan><tspan x="76.61" y="0" class="st21 st22 st23">tio</tspan><tspan x="86.75" y="0" class="st21 st22 st23">n</tspan><tspan x="91.7" y="0" class="st21 st22 st23">” includes </tspan></text>
<text transform="matrix(1.0082 0 0 1 308.4561 538.6155)"><tspan x="0" y="0" class="st21 st22 st23">user </tspan><tspan x="19.61" y="0" class="st21 st22 st23">r</tspan><tspan x="22.76" y="0" class="st21 st22 st23">atings </tspan><tspan x="49.71" y="0" class="st21 st22 st23">f</tspan><tspan x="52.62" y="0" class="st21 st22 st23">or </tspan><tspan x="63.12" y="0" class="st21 st22 st23">C</tspan><tspan x="69.13" y="0" class="st21 st22 st23">u</tspan><tspan x="74.18" y="0" class="st21 st22 st23">s</tspan><tspan x="78.46" y="0" class="st21 st22 st23">tomer Suppo</tspan><tspan x="130.5" y="0" class="st21 st22 st23">r</tspan><tspan x="134.02" y="0" class="st21 st22 st23">t</tspan><tspan x="137.2" y="0" class="st21 st22 st23">, </tspan></text>
<text transform="matrix(1.0082 0 0 1 308.4561 549.6136)"><tspan x="0" y="0" class="st21 st22 st23">Li</tspan><tspan x="6.95" y="0" class="st21 st22 st23">k</tspan><tspan x="11.38" y="0" class="st21 st22 st23">elihood to Recommend, and </tspan><tspan x="125.81" y="0" class="st21 st22 st23">V</tspan><tspan x="131.52" y="0" class="st21 st22 st23">alue </tspan></text>
<text transform="matrix(1.0082 0 0 1 308.4561 560.6116)"><tspan x="0" y="0" class="st21 st22 st23">f</tspan><tspan x="2.92" y="0" class="st21 st22 st23">or Mon</tspan><tspan x="31.09" y="0" class="st21 st22 st23">e</tspan><tspan x="35.77" y="0" class="st21 st22 st23">y</tspan><tspan x="40.09" y="0" class="st21 st22 st23">.</tspan></text>
<line class="st24" x1="62.63" y1="423.68" x2="62.63" y2="496.7"/>
<rect x="0.73" y="488.32" class="st25" width="73.02" height="71.31"/>
<g>
	<defs>
		<rect id="SVGID_3_" width="476.33" height="563.95"/>
	</defs>
	<clipPath id="SVGID_4_">
		<use xlink:href="#SVGID_3_"  style="overflow:visible;"/>
	</clipPath>
	<rect x="0.73" y="488.32" class="st26" width="73.02" height="71.31"/>
</g>
<rect x="22.29" y="488.34" class="st27" width="51.46" height="50.24"/>
<rect x="22.29" y="488.34" class="st28" width="51.46" height="50.24"/>
<rect x="37.12" y="488.32" class="st29" width="36.63" height="33.89"/>
<rect x="37.12" y="488.32" class="st30" width="36.63" height="33.89"/>
<rect x="49.33" y="488.32" class="st31" width="24.44" height="21.51"/>
<rect x="49.33" y="488.32" class="st30" width="24.44" height="21.51"/>
<text transform="matrix(1 0 0 1 81.5303 499.6385)"><tspan x="0" y="0" class="st9 st10 st32">12 </tspan><tspan x="17.63" y="0" class="st9 st10 st32">P</tspan><tspan x="25.47" y="0" class="st9 st10 st32">r</tspan><tspan x="30.14" y="0" class="st9 st10 st32">odu</tspan><tspan x="51.46" y="0" class="st9 st10 st32">c</tspan><tspan x="57.4" y="0" class="st9 st10 st32">ts: </tspan></text>
<text transform="matrix(1 0 0 1 155.7588 499.6385)"><tspan x="0" y="0" class="st9 st22 st32">Fr</tspan><tspan x="10.63" y="0" class="st9 st22 st32">ontRunne</tspan><tspan x="62.72" y="0" class="st9 st22 st32">r</tspan><tspan x="66.88" y="0" class="st9 st22 st32">s</tspan></text>
<text transform="matrix(1 0 0 1 81.5303 517.639)"><tspan x="0" y="0" class="st9 st10 st32">27 </tspan><tspan x="17.63" y="0" class="st9 st10 st32">P</tspan><tspan x="25.47" y="0" class="st9 st10 st32">r</tspan><tspan x="30.14" y="0" class="st9 st10 st32">odu</tspan><tspan x="51.46" y="0" class="st9 st10 st32">c</tspan><tspan x="57.4" y="0" class="st9 st10 st32">ts: </tspan></text>
<text transform="matrix(1 0 0 1 155.7588 517.639)"><tspan x="0" y="0" class="st9 st22 st32">T</tspan><tspan x="6.23" y="0" class="st9 st22 st32">o</tspan><tspan x="12.84" y="0" class="st9 st22 st32">p</tspan><tspan x="19.95" y="0" class="st9 st22 st32">-Rated</tspan></text>
<text transform="matrix(1 0 0 1 81.5303 535.6395)"><tspan x="0" y="0" class="st9 st10 st32">82 </tspan><tspan x="17.63" y="0" class="st9 st10 st32">P</tspan><tspan x="25.47" y="0" class="st9 st10 st32">r</tspan><tspan x="30.14" y="0" class="st9 st10 st32">odu</tspan><tspan x="51.46" y="0" class="st9 st10 st32">c</tspan><tspan x="57.4" y="0" class="st9 st10 st32">ts: </tspan></text>
<text transform="matrix(1 0 0 1 155.7588 535.6395)"><tspan x="0" y="0" class="st9 st22 st32">Adequate R</tspan><tspan x="63.38" y="0" class="st9 st22 st32">e</tspan><tspan x="69.58" y="0" class="st9 st22 st32">vi</tspan><tspan x="78.47" y="0" class="st9 st22 st32">e</tspan><tspan x="84.69" y="0" class="st9 st22 st32">w</tspan><tspan x="94.62" y="0" class="st9 st22 st32">s </tspan></text>
<text transform="matrix(1 0 0 1 81.5303 553.6395)"><tspan x="0" y="0" class="st9 st10 st32">396</tspan><tspan x="21.44" y="0" class="st9 st10 st32"> </tspan><tspan x="24.65" y="0" class="st9 st10 st32">Pr</tspan><tspan x="37.17" y="0" class="st9 st10 st32">odu</tspan><tspan x="58.49" y="0" class="st9 st10 st32">c</tspan><tspan x="64.44" y="0" class="st9 st10 st32">ts:</tspan></text>
<text transform="matrix(1 0 0 1 159.4414 553.6395)"><tspan x="0" y="0" class="st9 st22 st32"> </tspan><tspan x="2.95" y="0" class="st9 st22 st32">C</tspan><tspan x="10.91" y="0" class="st9 st22 st32">onside</tspan><tspan x="45.98" y="0" class="st9 st22 st32">r</tspan><tspan x="50.08" y="0" class="st9 st22 st32">ed</tspan><tspan x="63.29" y="0" class="st9 st22 st32"> </tspan><tspan x="66.25" y="0" class="st9 st22 st32">Pr</tspan><tspan x="77.92" y="0" class="st9 st22 st32">oje</tspan><tspan x="93.57" y="0" class="st9 st22 st32">c</tspan><tspan x="99.29" y="0" class="st9 st22 st32">ts</tspan></text>
</svg>
