<?xml version="1.0" encoding="utf-8"?>
<!-- Generator: Adobe Illustrator 24.0.3, SVG Export Plug-In . SVG Version: 6.00 Build 0)  -->
<svg version="1.1" xmlns="http://www.w3.org/2000/svg" xmlns:xlink="http://www.w3.org/1999/xlink" x="0px" y="0px"
	 viewBox="0 0 480.56 249.93" style="enable-background:new 0 0 480.56 249.93;" xml:space="preserve">
<style type="text/css">
	.st0{fill:#2D284D;stroke:#FFFFFF;stroke-width:5;stroke-miterlimit:10;}
	.st1{fill:#763154;stroke:#FFFFFF;stroke-width:5;stroke-miterlimit:10;}
	.st2{fill:#E15045;stroke:#FFFFFF;stroke-width:5;stroke-miterlimit:10;}
	.st3{fill:#F58020;stroke:#FFFFFF;stroke-width:5;stroke-miterlimit:10;}
	.st4{font-family:'NunitoSans-Bold';}
	.st5{font-size:10px;}
	.st6{font-family:'NunitoSans-Regular';}
	.st7{fill:#F58120;}
	.st8{font-family:'NunitoSans-SemiBold';}
	.st9{clip-path:url(#SVGID_2_);}
	.st10{clip-path:url(#SVGID_4_);}
	.st11{fill:#F89938;}
	.st12{fill:#763153;}
	.st13{fill:#E15045;}
	.st14{fill:#2D284D;}
	.st15{clip-path:url(#SVGID_6_);fill:none;stroke:#FFFFFF;stroke-width:3.07;stroke-miterlimit:10;}
	.st16{fill:#763254;}
	.st17{clip-path:url(#SVGID_8_);fill:none;stroke:#FFFFFF;stroke-width:3.07;stroke-miterlimit:10;}
	.st18{clip-path:url(#SVGID_10_);fill:none;stroke:#FFFFFF;stroke-width:3.07;stroke-miterlimit:10;}
	.st19{fill:#FFFFFF;}
	.st20{font-family:'NunitoSans-Black';}
	.st21{font-size:17.1895px;}
	.st22{fill:#F58020;}
	.st23{clip-path:url(#SVGID_12_);fill:none;stroke:#FFFFFF;stroke-width:3.07;stroke-miterlimit:10;}
	.st24{clip-path:url(#SVGID_14_);}
	.st25{fill:#818285;}
	.st26{font-family:'NunitoSans-ExtraBold';}
	.st27{font-size:6.226px;}
	.st28{clip-path:url(#SVGID_16_);}
	.st29{font-size:13px;}
	.st30{fill:none;stroke:#2D284D;}
	.st31{fill:none;stroke:#763153;}
	.st32{fill:none;stroke:#E15045;}
	.st33{fill:none;stroke:#F58020;}
	.st34{clip-path:url(#SVGID_20_);fill:none;stroke:#FFFFFF;stroke-width:1.8007;stroke-miterlimit:10;}
	.st35{clip-path:url(#SVGID_22_);fill:none;stroke:#FFFFFF;stroke-width:1.8007;stroke-miterlimit:10;}
	.st36{clip-path:url(#SVGID_24_);fill:none;stroke:#FFFFFF;stroke-width:1.8007;stroke-miterlimit:10;}
	.st37{clip-path:url(#SVGID_26_);fill:none;stroke:#FFFFFF;stroke-width:1.8007;stroke-miterlimit:10;}
</style>
<g id="Template">
</g>
<g id="Report_Size">
	<g>
		<text transform="matrix(1 0 0 1 259.4814 76.1187)"><tspan x="0" y="0" class="st4 st5">27 </tspan><tspan x="14.72" y="0" class="st4 st5">P</tspan><tspan x="21.23" y="0" class="st4 st5">r</tspan><tspan x="24.96" y="0" class="st4 st5">odu</tspan><tspan x="42.51" y="0" class="st4 st5">c</tspan><tspan x="47.41" y="0" class="st4 st5">ts</tspan></text>
		<text transform="matrix(1 0 0 1 315.4306 76.1187)"><tspan x="0" y="0" class="st6 st5"> with a</tspan><tspan x="30.28" y="0" class="st6 st5">v</tspan><tspan x="35.37" y="0" class="st6 st5">e</tspan><tspan x="40.64" y="0" class="st6 st5">r</tspan><tspan x="44.13" y="0" class="st6 st5">age adju</tspan><tspan x="82.19" y="0" class="st6 st5">s</tspan><tspan x="86.94" y="0" class="st6 st5">ted </tspan><tspan x="104.01" y="0" class="st6 st5">r</tspan><tspan x="107.5" y="0" class="st6 st5">atings </tspan></text>
		<text transform="matrix(1 0 0 1 259.4814 89.1187)"><tspan x="0" y="0" class="st6 st5">≥3.0 </tspan><tspan x="22.87" y="0" class="st6 st5">f</tspan><tspan x="26.1" y="0" class="st6 st5">or Usabili</tspan><tspan x="67.88" y="0" class="st6 st5">t</tspan><tspan x="71.33" y="0" class="st6 st5">y and </tspan><tspan x="98.43" y="0" class="st6 st5">C</tspan><tspan x="105.11" y="0" class="st6 st5">u</tspan><tspan x="110.72" y="0" class="st6 st5">s</tspan><tspan x="115.47" y="0" class="st6 st5">tomer Satis</tspan><tspan x="166.31" y="0" class="st6 st5">f</tspan><tspan x="169.55" y="0" class="st6 st5">a</tspan><tspan x="174.85" y="0" class="st6 st5">c</tspan><tspan x="179.65" y="0" class="st6 st5">tion </tspan></text>
		<text transform="matrix(1 0 0 1 259.4814 102.1187)"><tspan x="0" y="0" class="st6 st5">per the </tspan><tspan x="34.13" y="0" class="st6 st5">F</tspan><tspan x="39.6" y="0" class="st6 st5">r</tspan><tspan x="43.04" y="0" class="st6 st5">ontRunne</tspan><tspan x="86.77" y="0" class="st6 st5">r</tspan><tspan x="90.25" y="0" class="st6 st5">s </tspan></text>
		<text transform="matrix(1 0 0 1 357.0995 102.1187)"><tspan x="0" y="0" class="st7 st6 st5">m</tspan><tspan x="8.52" y="0" class="st7 st6 st5">e</tspan><tspan x="13.76" y="0" class="st7 st6 st5">thodology</tspan></text>
		<text transform="matrix(1 0 0 1 415.372 102.1187)" class="st6 st5">.</text>
		<text transform="matrix(1 0 0 1 259.9218 164.1983)"><tspan x="0" y="0" class="st4 st5">396 </tspan><tspan x="20.71" y="0" class="st4 st5">P</tspan><tspan x="27.22" y="0" class="st4 st5">r</tspan><tspan x="30.95" y="0" class="st4 st5">odu</tspan><tspan x="48.5" y="0" class="st4 st5">c</tspan><tspan x="53.4" y="0" class="st4 st5">ts </tspan></text>
		<text transform="matrix(1 0 0 1 324.5712 164.1983)"><tspan x="0" y="0" class="st6 st5">li</tspan><tspan x="4.64" y="0" class="st6 st5">s</tspan><tspan x="9.39" y="0" class="st6 st5">ted </tspan><tspan x="26.46" y="0" class="st6 st5">f</tspan><tspan x="29.7" y="0" class="st6 st5">oll</tspan><tspan x="39.89" y="0" class="st6 st5">o</tspan><tspan x="45.38" y="0" class="st6 st5">wing s</tspan><tspan x="75.04" y="0" class="st6 st5">o</tspan><tspan x="80.58" y="0" class="st6 st5">f</tspan><tspan x="83.64" y="0" class="st6 st5">t</tspan><tspan x="87.09" y="0" class="st6 st5">w</tspan><tspan x="95.42" y="0" class="st6 st5">a</tspan><tspan x="100.72" y="0" class="st6 st5">r</tspan><tspan x="104.16" y="0" class="st6 st5">e </tspan></text>
		<text transform="matrix(1 0 0 1 259.9218 177.1983)"><tspan x="0" y="0" class="st6 st5">categories on S</tspan><tspan x="68.65" y="0" class="st6 st5">o</tspan><tspan x="74.19" y="0" class="st6 st5">f</tspan><tspan x="77.25" y="0" class="st6 st5">t</tspan><tspan x="80.7" y="0" class="st6 st5">w</tspan><tspan x="89.03" y="0" class="st6 st5">a</tspan><tspan x="94.33" y="0" class="st6 st5">r</tspan><tspan x="97.77" y="0" class="st6 st5">e Advice: </tspan></text>
		<text transform="matrix(1 0 0 1 401.0097 177.1983)"><tspan x="0" y="0" class="st8 st5">F</tspan><tspan x="5.52" y="0" class="st8 st5">und</tspan><tspan x="22.88" y="0" class="st8 st5">r</tspan><tspan x="26.52" y="0" class="st8 st5">aising &amp; </tspan></text>
		<text transform="matrix(1 0 0 1 259.9218 190.1983)"><tspan x="0" y="0" class="st8 st5">Donor Management S</tspan><tspan x="99.02" y="0" class="st8 st5">o</tspan><tspan x="104.64" y="0" class="st8 st5">f</tspan><tspan x="107.81" y="0" class="st8 st5">t</tspan><tspan x="111.4" y="0" class="st8 st5">w</tspan><tspan x="119.81" y="0" class="st8 st5">a</tspan><tspan x="125.16" y="0" class="st8 st5">r</tspan><tspan x="128.72" y="0" class="st8 st5">e</tspan></text>
		<text transform="matrix(1 0 0 1 393.9306 190.1983)" class="st6 st5"> and </text>
		<path d="M421.53,183.15h0.97v7.05h-0.79l-4.03-5.32v5.32h-0.97v-7.05h0.78l4.04,5.33V183.15z M426.14,190.27
			c-0.48,0-0.9-0.1-1.27-0.31c-0.36-0.21-0.64-0.5-0.84-0.89c-0.2-0.38-0.29-0.83-0.29-1.33c0-0.51,0.1-0.96,0.29-1.35
			c0.2-0.38,0.48-0.68,0.84-0.89c0.36-0.21,0.79-0.31,1.27-0.31c0.48,0,0.9,0.1,1.26,0.31c0.36,0.21,0.64,0.5,0.84,0.89
			c0.2,0.38,0.3,0.83,0.3,1.35c0,0.51-0.1,0.95-0.3,1.33c-0.2,0.38-0.48,0.68-0.84,0.89C427.04,190.17,426.62,190.27,426.14,190.27
			L426.14,190.27z M426.14,189.47c0.45,0,0.79-0.15,1.02-0.44c0.24-0.29,0.36-0.72,0.36-1.29c0-0.56-0.12-0.99-0.36-1.29
			c-0.24-0.3-0.58-0.44-1.02-0.44s-0.78,0.15-1.02,0.44c-0.24,0.3-0.36,0.73-0.36,1.29c0,0.57,0.12,1,0.36,1.29
			C425.35,189.32,425.69,189.47,426.14,189.47L426.14,189.47z M432.29,185.2c1.17,0,1.75,0.66,1.75,1.97v3.03h-1.01v-2.98
			c0-0.41-0.08-0.72-0.24-0.91c-0.16-0.19-0.42-0.29-0.77-0.29c-0.41,0-0.73,0.13-0.98,0.38c-0.25,0.25-0.37,0.59-0.37,1.02v2.78
			h-1.01v-4.88h0.99v0.78c0.16-0.29,0.38-0.52,0.67-0.67C431.61,185.28,431.93,185.2,432.29,185.2L432.29,185.2z M438.04,185.2
			c0.42,0,0.79,0.11,1.12,0.32c0.33,0.21,0.59,0.51,0.77,0.9c0.18,0.39,0.27,0.83,0.27,1.34c0,0.5-0.09,0.94-0.27,1.32
			s-0.43,0.67-0.77,0.88c-0.33,0.21-0.71,0.31-1.13,0.31c-0.37,0-0.69-0.08-0.97-0.24c-0.28-0.16-0.49-0.38-0.64-0.68V192h-1.01
			v-6.68h1.01v0.8c0.15-0.29,0.36-0.52,0.64-0.68S437.67,185.2,438.04,185.2L438.04,185.2z M437.8,189.47
			c0.44,0,0.78-0.15,1.02-0.44c0.24-0.3,0.36-0.72,0.36-1.26c0-0.55-0.12-0.98-0.36-1.29c-0.24-0.31-0.58-0.46-1.02-0.46
			c-0.44,0-0.78,0.15-1.01,0.45c-0.24,0.3-0.36,0.73-0.36,1.28c0,0.55,0.12,0.98,0.36,1.28
			C437.02,189.32,437.36,189.47,437.8,189.47L437.8,189.47z M444.3,186.05l-0.61,0.06c-0.48,0.05-0.83,0.19-1.04,0.44
			c-0.21,0.25-0.32,0.56-0.32,0.94v2.71h-1.01v-4.88h0.98v0.85c0.26-0.57,0.79-0.89,1.59-0.95l0.33-0.02L444.3,186.05z
			 M447.01,190.27c-0.48,0-0.9-0.1-1.27-0.31c-0.36-0.21-0.64-0.5-0.84-0.89c-0.2-0.38-0.29-0.83-0.29-1.33
			c0-0.51,0.1-0.96,0.29-1.35c0.2-0.38,0.48-0.68,0.84-0.89c0.36-0.21,0.79-0.31,1.27-0.31c0.48,0,0.9,0.1,1.26,0.31
			c0.36,0.21,0.64,0.5,0.84,0.89c0.2,0.38,0.3,0.83,0.3,1.35c0,0.51-0.1,0.95-0.3,1.33c-0.2,0.38-0.48,0.68-0.84,0.89
			C447.91,190.17,447.49,190.27,447.01,190.27L447.01,190.27z M447.01,189.47c0.45,0,0.79-0.15,1.02-0.44
			c0.24-0.29,0.36-0.72,0.36-1.29c0-0.56-0.12-0.99-0.36-1.29c-0.24-0.3-0.58-0.44-1.02-0.44s-0.78,0.15-1.02,0.44
			c-0.24,0.3-0.36,0.73-0.36,1.29c0,0.57,0.12,1,0.36,1.29C446.22,189.32,446.56,189.47,447.01,189.47L447.01,189.47z
			 M451.83,185.32h3.1v4.88h-1.01v-4.1h-2.09v4.1h-1.01v-4.1h-0.95v-0.78h0.95v-0.09c0-0.67,0.17-1.18,0.52-1.52
			c0.35-0.34,0.87-0.53,1.58-0.57l0.4-0.02l0.06,0.76l-0.47,0.03c-0.39,0.02-0.66,0.12-0.83,0.31c-0.17,0.19-0.25,0.47-0.25,0.84
			V185.32z M453.84,183.13h1.18v1.07h-1.18V183.13z M458.65,189.49c0.15,0,0.3-0.01,0.45-0.03l-0.05,0.77
			c-0.17,0.03-0.34,0.04-0.52,0.04c-0.63,0-1.11-0.15-1.42-0.46c-0.31-0.31-0.46-0.76-0.46-1.35v-2.36h-0.95v-0.78h0.95v-1.47h1.01
			v1.47H459v0.78h-1.34v2.32C457.66,189.13,457.99,189.49,458.65,189.49L458.65,189.49z"/>
		<text transform="matrix(1 0 0 1 259.9218 203.1983)"><tspan x="0" y="0" class="st8 st5">CRM S</tspan><tspan x="30.99" y="0" class="st8 st5">o</tspan><tspan x="36.62" y="0" class="st8 st5">f</tspan><tspan x="39.79" y="0" class="st8 st5">t</tspan><tspan x="43.39" y="0" class="st8 st5">w</tspan><tspan x="51.8" y="0" class="st8 st5">a</tspan><tspan x="57.15" y="0" class="st8 st5">r</tspan><tspan x="60.72" y="0" class="st8 st5">e</tspan></text>
		<text transform="matrix(1 0 0 1 259.4814 35.3184)"><tspan x="0" y="0" class="st4 st5">12 </tspan><tspan x="14.72" y="0" class="st4 st5">P</tspan><tspan x="21.23" y="0" class="st4 st5">r</tspan><tspan x="24.96" y="0" class="st4 st5">odu</tspan><tspan x="42.51" y="0" class="st4 st5">c</tspan><tspan x="47.41" y="0" class="st4 st5">ts </tspan></text>
		<g>
			<defs>
				<rect id="SVGID_1_" x="1.84" y="1.86" width="468" height="248.07"/>
			</defs>
			<clipPath id="SVGID_2_">
				<use xlink:href="#SVGID_1_"  style="overflow:visible;"/>
			</clipPath>
			<g class="st9">
				<text transform="matrix(1 0 0 1 318.1406 35.3184)"><tspan x="0" y="0" class="st6 st5">that </tspan><tspan x="20.36" y="0" class="st6 st5">o</tspan><tspan x="25.9" y="0" class="st6 st5">f</tspan><tspan x="29.18" y="0" class="st6 st5">f</tspan><tspan x="32.42" y="0" class="st6 st5">er the co</tspan><tspan x="71.07" y="0" class="st6 st5">r</tspan><tspan x="74.5" y="0" class="st6 st5">e functionali</tspan><tspan x="128.6" y="0" class="st6 st5">t</tspan><tspan x="132.05" y="0" class="st6 st5">y </tspan><tspan x="139.77" y="0" class="st6 st5">o</tspan><tspan x="145.31" y="0" class="st6 st5">f </tspan></text>
			</g>
		</g>
		<text transform="matrix(1 0 0 1 259.4814 48.3184)"><tspan x="0" y="0" class="st6 st5">F</tspan><tspan x="5.48" y="0" class="st6 st5">und</tspan><tspan x="22.59" y="0" class="st6 st5">r</tspan><tspan x="26.09" y="0" class="st6 st5">aising s</tspan><tspan x="59.75" y="0" class="st6 st5">o</tspan><tspan x="65.29" y="0" class="st6 st5">f</tspan><tspan x="68.35" y="0" class="st6 st5">t</tspan><tspan x="71.8" y="0" class="st6 st5">w</tspan><tspan x="80.13" y="0" class="st6 st5">a</tspan><tspan x="85.43" y="0" class="st6 st5">r</tspan><tspan x="88.87" y="0" class="st6 st5">e</tspan></text>
		<text transform="matrix(1 0 0 1 259.9218 123.8584)"><tspan x="0" y="0" class="st4 st5">82 </tspan><tspan x="14.72" y="0" class="st4 st5">P</tspan><tspan x="21.23" y="0" class="st4 st5">r</tspan><tspan x="24.96" y="0" class="st4 st5">odu</tspan><tspan x="42.51" y="0" class="st4 st5">c</tspan><tspan x="47.41" y="0" class="st4 st5">ts </tspan></text>
		<g>
			<defs>
				<rect id="SVGID_3_" x="1.84" y="1.86" width="468" height="248.07"/>
			</defs>
			<clipPath id="SVGID_4_">
				<use xlink:href="#SVGID_3_"  style="overflow:visible;"/>
			</clipPath>
			<g class="st10">
				<text transform="matrix(1 0 0 1 318.58 123.8618)"><tspan x="0" y="0" class="st6 st5">with ≥20 end-user </tspan><tspan x="85.79" y="0" class="st6 st5">r</tspan><tspan x="89.22" y="0" class="st6 st5">e</tspan><tspan x="94.44" y="0" class="st6 st5">vi</tspan><tspan x="101.9" y="0" class="st6 st5">e</tspan><tspan x="107.11" y="0" class="st6 st5">w</tspan><tspan x="115.45" y="0" class="st6 st5">s in the </tspan></text>
			</g>
		</g>
		<text transform="matrix(1 0 0 1 259.9208 136.8618)"><tspan x="0" y="0" class="st6 st5">la</tspan><tspan x="7.62" y="0" class="st6 st5">s</tspan><tspan x="12.37" y="0" class="st6 st5">t 24 month</tspan><tspan x="61.76" y="0" class="st6 st5">s</tspan><tspan x="66.51" y="0" class="st6 st5">.</tspan></text>
		<rect x="241.79" y="27.21" class="st11" width="11.54" height="11.54"/>
		<rect x="241.79" y="115.77" class="st12" width="11.54" height="11.54"/>
		<rect x="242.66" y="67.22" class="st13" width="11.54" height="11.54"/>
		<rect x="241.79" y="156.09" class="st14" width="11.54" height="11.54"/>
		<rect x="9.63" y="25.8" class="st14" width="216.84" height="216.46"/>
		<g>
			<defs>
				<rect id="SVGID_5_" x="1.84" y="23.54" width="228" height="226.39"/>
			</defs>
			<clipPath id="SVGID_6_">
				<use xlink:href="#SVGID_5_"  style="overflow:visible;"/>
			</clipPath>
			<rect x="9.63" y="25.8" class="st15" width="216.84" height="216.46"/>
		</g>
		<rect x="123.84" y="25.8" class="st16" width="102.63" height="102.45"/>
		<g>
			<defs>
				<rect id="SVGID_7_" x="1.84" y="23.54" width="228" height="226.39"/>
			</defs>
			<clipPath id="SVGID_8_">
				<use xlink:href="#SVGID_7_"  style="overflow:visible;"/>
			</clipPath>
			<rect x="123.84" y="25.8" class="st17" width="102.63" height="102.45"/>
		</g>
		<rect x="155.61" y="25.8" class="st13" width="70.85" height="66.97"/>
		<g>
			<defs>
				<rect id="SVGID_9_" x="1.84" y="23.54" width="228" height="226.39"/>
			</defs>
			<clipPath id="SVGID_10_">
				<use xlink:href="#SVGID_9_"  style="overflow:visible;"/>
			</clipPath>
			<rect x="155.61" y="25.8" class="st18" width="70.85" height="66.97"/>
		</g>
		<text transform="matrix(1 0 0 1 56.9111 152.0493)" class="st19 st20 st21">396 Products</text>
		<text transform="matrix(1 0 0 1 133.3535 117.0342)"><tspan x="0" y="0" class="st19 st20 st21">8</tspan><tspan x="10.33" y="0" class="st19 st20 st21">2</tspan></text>
		<text transform="matrix(1 0 0 1 162.9023 85.0791)" class="st19 st20 st21">27</text>
		<rect x="181.81" y="25.8" class="st22" width="44.66" height="40.13"/>
		<g>
			<defs>
				<rect id="SVGID_11_" x="1.84" y="23.54" width="228" height="226.39"/>
			</defs>
			<clipPath id="SVGID_12_">
				<use xlink:href="#SVGID_11_"  style="overflow:visible;"/>
			</clipPath>
			<rect x="181.81" y="25.8" class="st23" width="44.66" height="40.13"/>
		</g>
		<text transform="matrix(1 0 0 1 187.6591 56.6431)"><tspan x="0" y="0" class="st19 st20 st21">1</tspan><tspan x="10.33" y="0" class="st19 st20 st21">2</tspan></text>
		<g>
			<defs>
				<rect id="SVGID_13_" x="1.84" y="23.54" width="228" height="226.39"/>
			</defs>
			<clipPath id="SVGID_14_">
				<use xlink:href="#SVGID_13_"  style="overflow:visible;"/>
			</clipPath>
			<g class="st24">
				<text transform="matrix(1 0 0 1 97.7675 248.2188)"><tspan x="0" y="0" class="st25 st26 st27">USA</tspan><tspan x="14.26" y="0" class="st25 st26 st27">B</tspan><tspan x="18.86" y="0" class="st25 st26 st27">ILI</tspan><tspan x="26.98" y="0" class="st25 st26 st27">T</tspan></text>
			</g>
			<g class="st24">
				<text transform="matrix(1 0 0 1 128.997 248.2188)" class="st25 st26 st27">Y</text>
			</g>
			<g class="st24">
				<text transform="matrix(-6.123234e-17 -1 1 -6.123234e-17 7.1492 182.1009)"><tspan x="0" y="0" class="st25 st26 st27">C</tspan><tspan x="4.53" y="0" class="st25 st26 st27">U</tspan><tspan x="9.44" y="0" class="st25 st26 st27">S</tspan></text>
			</g>
			<g class="st24">
				<text transform="matrix(-6.123234e-17 -1 1 -6.123234e-17 7.1492 168.385)"><tspan x="0" y="0" class="st25 st26 st27">T</tspan><tspan x="3.93" y="0" class="st25 st26 st27">O</tspan></text>
			</g>
			<g class="st24">
				<text transform="matrix(-6.123234e-17 -1 1 -6.123234e-17 7.1492 159.2386)"><tspan x="0" y="0" class="st25 st26 st27">M</tspan><tspan x="5.53" y="0" class="st25 st26 st27">ER S</tspan><tspan x="20.55" y="0" class="st25 st26 st27">A</tspan></text>
			</g>
			<g class="st24">
				<text transform="matrix(-6.123234e-17 -1 1 -6.123234e-17 7.1493 134.2288)" class="st25 st26 st27">T</text>
			</g>
			<g class="st24">
				<text transform="matrix(-6.123234e-17 -1 1 -6.123234e-17 7.1496 130.0452)"><tspan x="0" y="0" class="st25 st26 st27">IS</tspan><tspan x="6.52" y="0" class="st25 st26 st27">F</tspan></text>
			</g>
			<g class="st24">
				<text transform="matrix(-6.123234e-17 -1 1 -6.123234e-17 7.1495 119.9964)"><tspan x="0" y="0" class="st25 st26 st27">A</tspan><tspan x="4.86" y="0" class="st25 st26 st27">C</tspan></text>
			</g>
			<g class="st24">
				<text transform="matrix(-6.123234e-17 -1 1 -6.123234e-17 7.1493 110.6634)"><tspan x="0" y="0" class="st25 st26 st27">TIO</tspan><tspan x="11.55" y="0" class="st25 st26 st27">N</tspan></text>
			</g>
			<g class="st24">
				<text transform="matrix(1 0 0 1 8.5361 248.2188)"><tspan x="0" y="0" class="st25 st26 st27">0.</tspan><tspan x="5.98" y="0" class="st25 st26 st27">0</tspan></text>
			</g>
			<g class="st24">
				<text transform="matrix(-6.123234e-17 -1 1 -6.123234e-17 7.6817 245.1321)"><tspan x="0" y="0" class="st25 st26 st27">0.</tspan><tspan x="5.98" y="0" class="st25 st26 st27">0</tspan></text>
			</g>
			<g class="st24">
				<text transform="matrix(-6.123234e-17 -1 1 -6.123234e-17 7.682 33.5667)"><tspan x="0" y="0" class="st25 st26 st27">5</tspan><tspan x="4.05" y="0" class="st25 st26 st27">.</tspan><tspan x="5.97" y="0" class="st25 st26 st27">0</tspan></text>
			</g>
			<g class="st24">
				<text transform="matrix(1 0 0 1 219.8173 248.2188)"><tspan x="0" y="0" class="st25 st26 st27">5</tspan><tspan x="4.05" y="0" class="st25 st26 st27">.</tspan><tspan x="5.97" y="0" class="st25 st26 st27">0</tspan></text>
			</g>
		</g>
		<g>
			<defs>
				<rect id="SVGID_15_" x="1.84" y="1.86" width="468" height="248.07"/>
			</defs>
			<clipPath id="SVGID_16_">
				<use xlink:href="#SVGID_15_"  style="overflow:visible;"/>
			</clipPath>
			<g class="st28">
				<text transform="matrix(1 0 0 1 1.8417 15.0059)"><tspan x="0" y="0" class="st20 st29">NUMBER</tspan><tspan x="56.46" y="0" class="st20 st29"> </tspan><tspan x="60.03" y="0" class="st20 st29">OF</tspan><tspan x="77.89" y="0" class="st20 st29"> </tspan><tspan x="81.48" y="0" class="st20 st29">P</tspan><tspan x="90.28" y="0" class="st20 st29">R</tspan><tspan x="99.42" y="0" class="st20 st29">ODU</tspan><tspan x="129.5" y="0" class="st20 st29">C</tspan><tspan x="138.19" y="0" class="st20 st29">T</tspan><tspan x="146.17" y="0" class="st20 st29">S</tspan></text>
			</g>
		</g>
	</g>
</g>
</svg>
